<svg width="316" height="219" viewBox="0 0 316 219" fill="none" xmlns="http://www.w3.org/2000/svg">
<path d="M347.192 81.603C351.596 85.8671 356.101 92.3603 356.101 101.08C356.101 109.982 350.462 116.61 344.264 120.951C349.113 127.042 352.513 135.233 348.951 143.873C345.849 151.399 338.97 156.019 332.642 158.791C334.734 161.631 336.107 164.936 336.643 168.422C337.132 172.128 336.659 177.7 331.629 183.199C323.965 191.577 314.428 193.884 307.71 194.335L306.959 211.193C306.879 212.993 306.137 214.7 304.876 215.987C303.615 217.274 301.924 218.05 300.126 218.168C283.673 219.241 266.45 213.836 250.336 202.538C235.718 192.289 223.679 178.294 216.437 163.131C204.171 137.449 190.772 123.047 179.663 123.559C175.189 123.774 170.136 130.915 163.74 139.957C158.301 147.643 151.533 157.21 142.023 167.109C104.712 205.94 59.6412 209.297 57.7411 209.421C57.4107 209.443 57.0792 209.442 56.749 209.418C54.7345 209.276 36.8425 207.711 29.0189 196.776C23.0873 188.486 28.2641 179.906 31.6896 174.229C32.6009 172.787 33.4304 171.294 34.1742 169.759C32.826 168.709 30.8658 167.95 28.6642 167.098C23.8357 165.229 17.2228 162.668 13.6472 154.997C9.93225 147.029 12.932 137.808 15.8753 131.776C10.8679 127.801 4.20712 121.295 1.82292 113.385C-0.983209 104.076 4.06316 95.0646 8.2954 89.5688C4.77763 84.8947 0.504712 77.6327 0.0277629 69.4804C-0.551687 59.5777 8.05388 51.6477 15.118 46.85C11.4245 41.7707 7.72808 34.5773 8.60617 26.8681C10.1112 13.6502 21.5579 4.8399 22.8583 3.87894C23.6952 3.26015 24.6546 2.82729 25.6723 2.6093C38.7783 0.174225 52.145 -0.548203 65.4371 0.460144C94.9816 2.64145 119.021 13.4273 134.955 31.6523C167.893 69.324 173.582 69.8313 181.456 70.5343L182.283 70.6086C187.769 71.1009 209.832 59.1912 235.944 29.3488C254.762 7.84288 293.058 1.52588e-05 319.566 1.52588e-05C327.115 1.52588e-05 333.711 0.636612 338.625 1.77478C341.479 2.43568 350.164 4.44766 352.078 11.5439C354.435 20.2777 349.643 29.8932 345.129 36.5022C351.212 40.1367 358.299 46.1855 359.773 55.1222C361.437 65.2171 353.628 75.2484 347.192 81.603ZM345.335 57.5029C344.463 52.2136 335.536 47.5323 331.37 46.1005C330.214 45.7094 329.174 45.0356 328.345 44.1403C327.515 43.245 326.923 42.1566 326.621 40.974C326.32 39.7915 326.318 38.5523 326.618 37.3691C326.917 36.1859 327.507 35.0963 328.335 34.1994C332.619 29.5531 337.893 21.4709 338.088 16.7982C333.393 14.8719 318.271 13.2858 298.608 16.2444C275.37 19.7397 256.543 28.0284 246.957 38.9843C234.923 52.7366 222.286 64.4712 210.411 72.92C198.901 81.1086 189.515 85.2483 182.473 85.2483C181.951 85.2483 181.441 85.2255 180.944 85.1797L180.155 85.109C167.4 83.9708 159.106 81.5037 123.94 41.2834C94.4608 7.56781 40.6232 14.8641 30.4283 16.606C28.2773 18.5494 23.7489 23.2171 23.1448 28.5242C22.5776 33.5027 28.4499 40.599 31.3664 43.2404C32.2628 44.0425 32.9476 45.0533 33.3602 46.1833C33.7728 47.3132 33.9004 48.5275 33.7317 49.7185C33.563 50.9096 33.1033 52.0406 32.3931 53.0116C31.683 53.9825 30.7445 54.7634 29.6606 55.2851C22.6976 58.636 14.4428 65.3343 14.6354 68.6259C15.0141 75.0998 20.8903 82.2218 23.1063 84.4038C23.8167 85.0944 24.3794 85.9221 24.7603 86.8368C25.1413 87.7514 25.3324 88.7339 25.3222 89.7246C25.312 90.7154 25.1007 91.6937 24.7011 92.6003C24.3014 93.507 23.7218 94.323 22.9973 94.9988C19.8857 97.9025 14.5897 105.037 15.8332 109.163C17.6566 115.211 26.4018 121.62 29.3091 123.381C30.1725 123.899 30.9196 124.59 31.5038 125.41C32.088 126.23 32.4967 127.162 32.7042 128.147C32.9118 129.132 32.9137 130.15 32.7099 131.136C32.5062 132.122 32.1011 133.055 31.5201 133.877C28.6696 137.911 25.3877 145.55 26.9095 148.816C27.9033 150.948 29.6292 151.78 33.9475 153.452C37.7657 154.93 42.5173 156.77 46.2034 161.117C52.3315 168.343 47.2526 176.76 44.2182 181.789C43.1021 183.638 41.0577 187.027 40.9873 188.355C43.9617 192.352 52.8909 194.35 57.2703 194.778C61.9745 194.326 100.016 189.708 131.471 156.97C140.222 147.863 146.37 139.173 151.794 131.505C160.493 119.211 167.363 109.501 178.961 108.943C179.422 108.921 179.881 108.91 180.341 108.91C197.87 108.911 214.451 125.021 229.641 156.825C240.431 179.416 266.187 201.769 292.652 203.554L293.414 186.478C293.46 185.43 293.732 184.405 294.209 183.471C294.687 182.538 295.36 181.718 296.182 181.067C297.005 180.416 297.957 179.95 298.976 179.699C299.994 179.449 301.055 179.42 302.085 179.616C302.195 179.636 313.364 181.487 320.832 173.322C322.311 171.706 322.19 170.757 322.138 170.351C321.758 167.386 317.459 163.333 314.697 161.542C313.441 160.742 312.459 159.578 311.882 158.205C311.306 156.831 311.162 155.315 311.47 153.858C311.778 152.401 312.523 151.073 313.606 150.051C314.69 149.029 316.059 148.362 317.531 148.138C322.346 147.408 333.055 144.042 335.424 138.296C337.442 133.399 329.785 126.696 327.646 125.185C326.539 124.41 325.667 123.345 325.127 122.105C324.588 120.866 324.402 119.502 324.589 118.164C324.777 116.825 325.331 115.565 326.19 114.521C327.05 113.478 328.181 112.693 329.459 112.253C332.574 111.175 341.468 106.81 341.468 101.08C341.468 93.4356 332.343 88.5871 332.291 88.5592C331.183 87.9995 330.236 87.167 329.538 86.1402C328.841 85.1134 328.416 83.9261 328.304 82.6898C328.192 81.4536 328.396 80.2093 328.898 79.0738C329.4 77.9384 330.182 76.9492 331.171 76.1994C338.408 70.7136 346.003 61.5518 345.335 57.5029Z" fill="#FFDAA4" fill-opacity="0.5"/>
<path d="M256.185 71.1788C242.474 82.9093 227.982 91.2542 212.929 96.1505C226.542 100.653 235.855 107.744 245.483 115.081C247.102 116.316 248.743 117.566 250.429 118.822C251.983 119.982 253.013 121.711 253.293 123.63C253.572 125.549 253.079 127.5 251.921 129.055C250.762 130.61 249.034 131.642 247.116 131.924C245.197 132.206 243.245 131.714 241.689 130.558C239.959 129.269 238.275 127.986 236.613 126.719C221.368 115.1 209.327 105.923 178.55 105.923C145.274 105.923 118.665 128.987 118.201 129.393C116.75 130.676 114.849 131.331 112.916 131.215C110.982 131.099 109.174 130.22 107.887 128.773C106.6 127.325 105.94 125.426 106.051 123.492C106.162 121.558 107.036 119.747 108.48 118.457C120.27 108.63 133.803 101.11 148.374 96.2885C147.244 95.9339 146.115 95.5645 144.987 95.1725C136.532 92.2589 128.461 88.3324 120.949 83.4786C110.175 76.4295 109.562 73.3093 109.233 71.6332C108.9 69.9403 109.177 68.1845 110.013 66.6757C110.85 65.1669 112.192 64.0021 113.804 63.387C115.416 62.7719 117.193 62.7461 118.822 63.314C120.451 63.882 121.827 65.0072 122.707 66.4911C125.164 68.9174 140.121 80.4885 163.222 84.9811C192.592 90.692 220.669 82.3075 246.673 60.06C247.403 59.4354 248.249 58.9607 249.162 58.663C250.076 58.3653 251.039 58.2505 251.997 58.3251C252.955 58.3997 253.889 58.6622 254.745 59.0977C255.601 59.5331 256.364 60.133 256.988 60.8631C257.613 61.5932 258.088 62.4391 258.385 63.3526C258.683 64.2661 258.798 65.2293 258.723 66.1872C258.649 67.1451 258.386 68.079 257.951 68.9354C257.515 69.7919 256.915 70.5541 256.185 71.1787L256.185 71.1788Z" fill="#FFDAA4" fill-opacity="0.5"/>
</svg>
