<svg width="32" height="26" viewBox="0 0 32 26" fill="none" xmlns="http://www.w3.org/2000/svg">
<path d="M27.7043 2.88927H24.8154V2.52816C24.6674 1.8059 24.2717 1.15803 23.6968 0.696498C23.1218 0.234961 22.4037 -0.0112532 21.6666 0.000395131H10.1111C9.37634 -0.00786775 8.66166 0.239893 8.08971 0.701145C7.51776 1.1624 7.12421 1.80837 6.97663 2.52816V2.88927H4.08776C3.00612 2.88926 1.96856 3.31795 1.20237 4.08144C0.436182 4.84492 0.00382206 5.88095 0 6.96259V21.927C0.00380652 23.0061 0.43418 24.04 1.19725 24.803C1.96032 25.5661 2.99418 25.9965 4.07331 26.0003H27.7043C28.7835 25.9965 29.8173 25.5661 30.5804 24.803C31.3434 24.04 31.7738 23.0061 31.7776 21.927V6.96259C31.7738 5.88345 31.3434 4.84959 30.5804 4.08652C29.8173 3.32345 28.7835 2.89308 27.7043 2.88927V2.88927ZM28.8888 21.927C28.8888 22.0825 28.8581 22.2365 28.7986 22.3802C28.7391 22.5239 28.6518 22.6545 28.5418 22.7645C28.4319 22.8745 28.3013 22.9617 28.1576 23.0212C28.0139 23.0808 27.8599 23.1114 27.7043 23.1114H4.07331C3.91777 23.1114 3.76375 23.0808 3.62005 23.0212C3.47635 22.9617 3.34577 22.8745 3.23579 22.7645C3.1258 22.6545 3.03856 22.5239 2.97904 22.3802C2.91951 22.2365 2.88888 22.0825 2.88888 21.927V6.96259C2.88888 6.64845 3.01366 6.34719 3.23579 6.12506C3.45791 5.90293 3.75918 5.77815 4.07331 5.77815H9.27329L9.80773 3.10594C9.81297 3.07158 9.82504 3.03863 9.84323 3.00902C9.86142 2.97941 9.88536 2.95374 9.91364 2.93354C9.94192 2.91334 9.97396 2.89902 10.0079 2.89142C10.0418 2.88381 10.0769 2.88308 10.1111 2.88927H21.6666C21.7286 2.8884 21.789 2.90977 21.8366 2.94951C21.8843 2.98925 21.9162 3.04473 21.9266 3.10594L22.5043 5.77815H27.7043C28.0184 5.77815 28.3197 5.90293 28.5418 6.12506C28.764 6.34719 28.8888 6.64845 28.8888 6.96259V21.927Z" fill="white" fill-opacity="0.9"/>
<path d="M15.8863 5.77808C14.4578 5.77808 13.0615 6.20165 11.8738 6.99523C10.6861 7.78882 9.76045 8.91677 9.21382 10.2365C8.66719 11.5561 8.52417 13.0083 8.80284 14.4092C9.08151 15.8102 9.76935 17.0971 10.7794 18.1071C11.7894 19.1172 13.0763 19.805 14.4773 20.0837C15.8782 20.3624 17.3304 20.2193 18.6501 19.6727C19.9697 19.1261 21.0977 18.2004 21.8913 17.0127C22.6849 15.825 23.1084 14.4287 23.1084 13.0003C23.1084 11.0848 22.3475 9.24783 20.9931 7.89341C19.6387 6.53898 17.8017 5.77808 15.8863 5.77808V5.77808ZM15.8863 17.3336C15.0292 17.3336 14.1914 17.0794 13.4788 16.6033C12.7662 16.1271 12.2108 15.4504 11.8828 14.6586C11.5548 13.8667 11.469 12.9955 11.6362 12.1549C11.8034 11.3143 12.2161 10.5422 12.8221 9.93615C13.4282 9.33012 14.2003 8.91742 15.0409 8.75021C15.8814 8.58301 16.7527 8.66883 17.5445 8.9968C18.3364 9.32478 19.0131 9.88019 19.4893 10.5928C19.9654 11.3054 20.2196 12.1432 20.2196 13.0003C20.2196 14.1495 19.763 15.2517 18.9504 16.0644C18.1377 16.877 17.0355 17.3336 15.8863 17.3336Z" fill="white" fill-opacity="0.9"/>
</svg>
