<svg width="22" height="33" viewBox="0 0 22 33" fill="none" xmlns="http://www.w3.org/2000/svg">
<path d="M11.0001 0C7.2072 0 4.1251 3.0821 4.1251 6.875V16.9583C4.1251 20.7512 7.2072 23.8333 11.0001 23.8333C14.793 23.8333 17.8751 20.7512 17.8751 16.9583V6.875C17.8751 3.0821 14.793 0 11.0001 0V0ZM11.0001 1.83333C13.809 1.83333 16.0418 4.06606 16.0418 6.875V16.9583C16.0418 19.7673 13.809 22 11.0001 22C8.19116 22 5.95843 19.7673 5.95843 16.9583V6.875C5.95843 4.06606 8.19116 1.83333 11.0001 1.83333ZM0.931086 11.4583C0.441568 11.4507 -0.0075622 11.8998 9.65546e-05 12.3893V16.9726C9.65546e-05 22.7439 4.43215 27.4669 10.0834 27.9297V31.1667H6.41676C5.9105 31.1667 5.5001 31.5771 5.5001 32.0833C5.5001 32.5896 5.9105 33 6.41676 33H15.5834C16.0897 33 16.5001 32.5896 16.5001 32.0833C16.5001 31.5771 16.0897 31.1677 15.5834 31.1667H11.9168V27.9297C17.568 27.4669 22.0001 22.7439 22.0001 16.9726V12.3893C22.0069 11.905 21.5678 11.4596 21.0834 11.4596C20.5991 11.4596 20.1599 11.905 20.1668 12.3893V16.9726C20.1668 22.0668 16.0943 26.1393 11.0001 26.1393C5.9059 26.1393 1.83343 22.0668 1.83343 16.9726V12.3893C1.84095 11.9094 1.41105 11.4658 0.931086 11.4583V11.4583Z" fill="white"/>
</svg>
