<svg width="288" height="210" viewBox="0 0 288 210" fill="none" xmlns="http://www.w3.org/2000/svg">
<path d="M119.262 103.47C119.808 102.696 120.278 101.872 120.665 101.007C121.745 97.8398 124.547 96.622 127.236 95.8605C129.108 95.3314 131.093 94.6995 133.245 94.8513C138.128 95.1962 141.557 97.4926 144.001 101.64C145.212 103.507 146.12 105.554 146.69 107.706C147.015 109.179 147.413 110.889 146.981 112.232C145.301 117.451 142.437 121.836 137.018 123.907C135.525 124.475 133.972 124.897 132.44 125.359C132.185 125.448 131.907 125.447 131.653 125.356C127.724 123.443 123.925 121.264 121.644 117.385C120.664 115.72 119.757 113.795 119.999 111.702C120.291 109.163 119.208 106.493 120.722 104.073L119.262 103.47ZM127.078 115.679C129.078 115.679 130.836 115.984 132.437 115.612C135.398 114.924 139.382 108.876 139.156 105.807C139.122 105.337 138.969 104.652 138.646 104.465C137.16 103.609 135.594 102.895 134.056 102.13C133.144 103.703 130.321 101.939 129.936 104.545C129.777 105.62 127.327 104.932 127.98 106.839C126.396 109.656 127.556 112.657 127.078 115.679Z" fill="#FFDAA4" fill-opacity="0.5"/>
<path d="M2.42636 150.509C1.15595 150.219 0.415825 149.688 0.87238 148.179C1.15724 148.083 1.43057 147.955 1.68737 147.799C4.27641 145.923 7.46037 145.643 10.3761 144.713C11.1157 144.534 11.8845 144.51 12.6339 144.643C13.3832 144.776 14.0968 145.064 14.7295 145.488C18.0394 148.028 21.7111 150.237 23.2759 154.598C24.569 158.199 24.0483 162.821 21.7644 165.766C20.4373 167.477 18.5805 168.551 17.2165 170.289C14.9785 169.926 12.6226 170.837 10.3942 169.488C9.35465 168.858 4.82937 166.46 3.94462 165.797C1.88077 164.253 1.07598 161.994 0.304089 159.702C0.145287 159.231 -0.10879 158.628 0.0505786 158.237C1.07428 155.729 0.346061 152.715 2.42636 150.509Z" fill="#FFDAA4" fill-opacity="0.5"/>
<path d="M207.868 70.5868L209.59 71.1858L208.448 74.7961L206.31 75.045L207.07 76.0679C205.715 77.7386 204.156 79.0229 201.754 78.9155C201.13 78.9449 200.516 79.0836 199.94 79.3253C198.372 79.9347 196.629 79.9049 195.083 79.2423C194.526 78.9911 193.471 78.7047 193.292 78.9366C191.792 80.8767 190.559 78.3813 189.091 78.7172C188.474 78.8581 187.888 77.2397 186.57 77.1971C185.863 77.1726 185.239 76.1315 184.488 75.7076C183.612 75.2132 183.269 73.8891 181.968 74.0817C181.358 72.1058 179.387 71.1932 178.395 69.5537C176.191 65.9053 176.188 60.6589 177.998 57.1293C179.602 54.001 182.623 53.0855 185.4 55.1892C186.748 56.2121 187.769 57.0231 189.302 55.791C189.831 56.6293 190.323 56.2911 190.705 55.691C191.316 54.7346 192.249 54.6778 193.157 54.8687C196.318 55.5342 199.529 56.4321 202.072 58.3415C204.309 60.0219 205.912 62.5507 207.796 64.7062C207.643 66.6151 210.067 68.4211 207.868 70.5868ZM183.052 67.9687C186.228 71.0062 191.536 72.7002 195.9 72.5349C196.851 72.5246 197.79 72.3198 198.659 71.933C199.528 71.5462 200.31 70.9856 200.955 70.2856C201.757 69.4559 202.581 68.6478 203.414 67.8096C203.005 67.3705 202.658 66.8776 202.382 66.3446C201.763 64.2829 200.637 62.9917 198.31 62.8127C197.254 62.7326 196.255 62.0427 195.201 61.7262C194.511 61.5187 193.299 61.1698 193.129 61.4244C192.164 62.8718 191.642 60.6015 190.379 61.7023L187.213 64.6829L184.758 62.7468C182.254 63.9993 183.52 66.1161 183.052 67.967V67.9687Z" fill="#FFDAA4" fill-opacity="0.5"/>
<path d="M236.999 161.745C238.2 161.117 239.551 160.077 241.522 160.882L240.774 161.91C241.553 162.111 242.815 162.153 242.911 162.507C243.564 164.966 246.334 165.662 247.161 167.941C248.56 171.795 249.788 175.639 247.734 179.631C247.507 180.075 247.271 180.176 247.6 180.804C248.507 182.536 247.663 183.782 246.078 184.681C244.976 185.306 245.585 185.931 246.227 186.553L242.107 191.853H237.712C236.899 190.978 235.902 189.921 234.923 188.847C234.043 187.881 232.89 187.278 232.096 186.119C231.265 184.906 230.699 183.531 230.434 182.085C230.169 180.638 230.21 179.151 230.556 177.722C231.026 175.449 232.142 173.313 232.7 171.049C233.064 169.571 233.425 168.382 234.9 167.574C235.491 167.25 235.898 166.061 235.881 165.277C235.856 164.129 236.653 163.698 237.153 162.972C237.316 162.735 237.07 162.216 236.999 161.745Z" fill="#FFDAA4" fill-opacity="0.5"/>
<path d="M270.129 50.0378L268.444 52.499C268.086 52.1643 267.768 51.6466 267.533 51.6829C264.684 52.1103 263.743 49.3655 261.826 48.2676C261.61 48.1437 261.461 47.3623 261.591 47.2504C263.586 45.5455 261.46 44.2868 261.194 42.8126C260.878 43.0968 260.598 43.3497 260.315 43.6009C260.221 43.5054 260.041 43.4071 260.045 43.3167C260.138 41.5698 259.19 39.6678 260.943 38.155C261.34 37.8106 261.266 36.9684 261.561 36.4411C262.319 35.0886 262.523 33.3042 263.91 32.4557C265.335 31.584 264.777 29.8075 266.197 28.7829C268.606 27.044 272.371 26.1626 275.193 27.2196C279.292 28.7539 281.901 31.8795 283.429 35.6586C284.738 38.7566 285.167 42.1572 284.668 45.4841C284.335 47.4271 282.626 48.7625 281.116 49.9309C280.662 50.281 279.528 49.7423 278.461 49.5729C278.501 50.0247 278.621 50.4655 278.817 50.8743C279.24 51.5289 279.41 52.1432 278.594 52.4086C277.764 52.6769 277.46 52.1018 277.511 51.2817C277.519 51.1476 277.145 50.9891 276.73 50.6788L274.614 52.4484L274.127 50.7527L270.742 53.8918C270.483 52.2552 270.315 51.2027 270.129 50.0378ZM277.51 35.9853C277.322 35.7972 277.05 35.6444 276.96 35.417C276.306 33.7543 274.553 34.031 273.334 33.5838C272.68 33.3445 271.527 34.4311 270.618 34.9528C270.215 35.184 269.407 36.5121 268.871 37.4748C268.453 38.2226 267.997 39.4427 267.436 39.516C266.172 39.6809 266.432 40.3855 266.316 41.1402C266.174 41.6451 265.965 42.1282 265.692 42.5762C268.491 45.4284 271.127 44.2334 274.013 42.8905C277.161 41.4243 277.709 38.9768 277.51 35.9853Z" fill="#FFDAA4" fill-opacity="0.5"/>
<path d="M68.6937 91.3654L70.0055 92.4764C70.2602 91.965 70.4491 91.0716 70.7842 91.0131C71.635 90.8636 72.7789 90.7733 73.4073 91.2205C75.2936 92.5645 77.2792 93.9483 78.6772 95.748C79.9797 97.5497 80.9312 99.5814 81.4818 101.737C81.8055 103.123 81.6053 104.581 80.9198 105.828C79.4605 108.846 77.9961 111.552 74.9494 113.326C73.6013 114.111 72.0887 114.146 70.8092 114.938C70.2624 115.215 69.6918 115.442 69.1043 115.616L68.3228 114.227C67.8691 114.873 67.5674 114.795 66.8766 114.319C65.6362 113.46 63.2247 111.262 62.1778 110.405C58.814 107.652 60.7525 104.227 60.8977 101.088C60.934 100.299 62.1902 99.568 62.9309 98.7582C65.6805 100.239 67.1017 102.605 68.0636 105.218C70.7587 104.882 71.1966 102.361 72.6774 100.956C73.0046 100.646 72.7823 99.7532 72.8447 98.4758L69.9738 101.35C67.9462 101.206 68.1901 98.7565 66.4824 98.6082C66.4541 97.021 66.1824 95.3843 66.4915 93.8659C66.6696 93.0043 67.7965 92.3366 68.6937 91.3654Z" fill="#FFDAA4" fill-opacity="0.5"/>
<path d="M221.473 -12.7874L224.456 -15.7771H229.412C229.928 -17.9439 228.331 -17.0665 227.298 -17.3535C227.412 -17.6325 227.44 -17.9667 227.622 -18.1235C228.885 -19.2106 227.015 -19.634 227.194 -20.7376C228.039 -22.7522 230.397 -23.1193 232.169 -24.2166C232.67 -24.5275 233.648 -24.357 234.288 -24.103C237.532 -22.8181 238.708 -19.9017 240.016 -16.9597C240.857 -15.069 240.073 -12.8351 241.547 -11.182C240.963 -9.02251 240.737 -6.66358 239.697 -4.75131C238.591 -2.71914 236.231 -1.6127 234.009 -1.3905C232.78 -1.26775 231.706 0.180229 230.499 -0.758572C229.475 -1.55416 228.031 -1.10693 227.097 -2.36567C226.432 -3.26412 224.957 -3.32493 224.556 -4.89338C224.359 -5.66795 222.882 -5.7907 222.214 -7.02103C221.14 -9.00546 221.938 -10.8995 221.473 -12.7874Z" fill="#FFDAA4" fill-opacity="0.5"/>
<path d="M203.767 115.297L202.363 112.566C202.817 110.172 205.536 110.835 206.421 108.974C207.29 107.149 209.942 107.927 211.362 106.085L209.698 104.966C209.779 104.864 209.888 104.58 210.043 104.552C212.736 104.061 214.7 105.504 216.533 107.142C218.06 108.506 218.934 110.371 220.08 112.02C220.725 112.948 219.602 113.801 220.576 114.392C220.972 114.632 221.281 114.992 221.456 115.421C221.632 115.85 221.666 116.324 221.552 116.773C221.372 117.859 222.396 119.028 222.212 119.592C221.779 120.92 221.744 122.311 221.3 123.599C220.534 126.011 219.185 128.196 217.373 129.96C216.295 130.972 214.776 131.313 212.873 130.979C208.284 130.174 208.231 130.223 206.161 127.944C204.53 126.188 203.449 123.991 203.052 121.625C202.803 120.209 201.966 118.959 202.96 117.557C201.626 116.273 203.644 116.304 203.767 115.297ZM207.423 112.726C207.92 114.715 208.356 116.382 208.745 118.063C208.833 118.44 208.929 119.04 208.731 119.224C206.973 120.857 208.606 122.201 209.034 123.643C212.113 123.693 212.028 123.5 213.606 121.247C215.485 118.566 215.163 115.649 215.11 112.731C214.992 112.11 214.647 111.557 214.143 111.178C213.241 110.414 211.757 111.595 210.936 110.326C210.657 110.753 210.377 111.18 210.099 111.608C208.543 110.565 208.151 112.233 207.423 112.726Z" fill="#FFDAA4" fill-opacity="0.5"/>
<path d="M96.5587 6.62169C100.199 8.67602 101.036 10.3883 99.0377 13.5178C98.0061 15.1328 99.2816 16.9519 97.8258 18.2771C97.6102 18.4732 98.1763 19.5421 98.3929 20.203C98.9901 22.0215 99.5788 22.1829 101.552 21.6624C105.321 20.6679 107.106 17.9981 108.013 14.377C106.609 13.9792 105.194 13.5962 103.792 13.1734C102.081 12.6574 102.705 10.7298 102.002 9.84668L104.581 7.26385C107.02 5.89998 108.531 8.56635 110.753 9.171C112.384 11.8084 114.659 14.0963 114.423 17.6287C114.126 22.0903 112.208 25.8068 107.345 27.5935C103.286 29.0847 100.075 28.459 96.5928 25.3585C94.4699 23.4689 92.7413 21.5214 92.6641 18.1663C92.5632 13.736 93.4088 9.8427 96.5587 6.62169Z" fill="#FFDAA4" fill-opacity="0.5"/>
<path d="M90.973 170.871C87.5043 171.894 85.479 169.549 83.1463 168.153C81.0064 166.871 80.728 164.345 80.0951 162.268C79.5103 160.347 80.6911 158.346 81.3847 156.489C82.0654 154.948 82.8481 153.454 83.7276 152.017L82.3472 151.516C82.9359 150.895 83.4554 150.347 84.1008 149.665L81.3445 149.166C82.1192 148.588 82.6665 147.842 83.1594 147.876C84.5449 147.97 85.8992 147.49 87.3563 148.287C91.0609 150.312 92.9574 153.705 94.3231 157.343C96.2412 162.45 95.2158 167.093 90.973 170.871Z" fill="#FFDAA4" fill-opacity="0.5"/>
<path d="M135.383 189.881C135.002 190.647 134.676 191.305 134.297 192.067C135.564 193.326 136.522 194.863 137.094 196.556C137.666 198.25 137.838 200.053 137.594 201.824C137.495 202.721 137.518 203.493 136.848 204.334C135.579 205.929 135.405 208.255 132.941 209.1C131.875 209.464 130.709 209.766 129.992 209.397C127.992 208.367 125.692 207.572 124.452 205.511C123.749 204.48 123.295 203.298 123.127 202.06C122.695 197.611 124.498 193.919 126.757 190.379C127.361 189.549 128.191 188.912 129.148 188.543C130.326 188.009 131.055 187.576 132.234 188.459C133.091 189.103 134.225 189.378 135.383 189.881Z" fill="#FFDAA4" fill-opacity="0.5"/>
<path d="M279.556 98.0916C277.977 96.8738 277.051 94.6751 274.588 94.7666C273.972 93.6965 272.995 92.685 272.81 91.5445C272.36 88.7769 273.007 86.3078 275.86 84.9524C276.2 84.7921 276.427 84.4063 276.795 84.0392L275.809 83.7033L278.215 81.2932L277.661 80.6374C278.018 80.5415 278.387 80.4977 278.756 80.5073C280.361 80.7846 282.21 79.6895 283.573 81.3324C285.389 83.3963 286.631 85.9035 287.173 88.6013C287.86 92.3304 284.267 96.4539 281.537 97.7825C280.84 98.1212 279.976 96.7545 279.556 98.0916Z" fill="#FFDAA4" fill-opacity="0.5"/>
<path d="M173.57 146.87C173.531 147.593 173.535 148.318 173.582 149.041C173.999 151.76 171.735 152.722 170.16 153.92C168.595 155.109 167.097 153.36 165.632 152.927C164.265 152.523 163.137 151.207 161.984 150.2C160.042 148.507 159.318 144.485 160.546 142.073C160.825 141.525 160.527 140.592 161.826 140.47C162.601 140.398 163.333 139.158 163.959 138.346C165.591 136.227 167.022 135.984 168.771 137.835C169.913 139.045 171.239 140.035 172.054 141.657C172.998 143.537 174.058 145.242 173.57 146.87Z" fill="#FFDAA4" fill-opacity="0.5"/>
<path d="M129.994 55.6507C131.722 57.5118 133.65 59.1212 134.558 61.7398C135.681 64.9836 135.068 66.7543 132.315 68.6456C129.178 70.8005 127.078 70.4271 124.339 67.6289C123.967 67.2487 123.588 66.8754 123.288 66.5747C122.835 65.1717 123.875 63.5515 122.381 62.453C121.554 58.7541 124.05 55.7234 127.987 55.6524C128.654 55.641 129.318 55.6507 129.994 55.6507Z" fill="#FFDAA4" fill-opacity="0.5"/>
<path d="M167.173 14.4662L168.772 13.216C168.257 12.7824 167.742 12.3482 167.241 11.9249C167.446 11.6975 167.695 11.4191 168.042 11.0309L165.359 10.4439C166.494 7.39565 169.277 7.17402 171.46 6.1784C171.886 5.98404 172.805 6.54665 173.332 6.96661C175.431 8.65682 177.074 10.8464 178.112 13.3359C178.255 13.6649 178.446 14.2639 178.311 14.3798C176.421 15.9943 178.915 19.1199 176.439 20.2007C175.954 20.4121 174.865 19.1653 173.561 19.0744L175.22 20.8986C174.248 21.5441 173.332 22.2136 172.35 22.7682C171.967 22.8814 171.56 22.8863 171.174 22.7824C170.94 22.7563 170.513 22.5784 170.522 22.5204C170.845 20.3309 168.241 21.9584 167.95 20.5212C167.805 19.8103 167.273 19.1574 167.207 18.455C167.085 17.1377 167.173 15.8011 167.173 14.4662Z" fill="#FFDAA4" fill-opacity="0.5"/>
</svg>
