<svg width="140" height="140" viewBox="0 0 140 140" fill="none" xmlns="http://www.w3.org/2000/svg">
<rect width="140" height="140" fill="#3D3C98"/>
<path d="M90.6516 51.4276H89.3469V47.9563C89.347 47.8307 89.3222 47.7063 89.2742 47.5903C89.2261 47.4743 89.1557 47.3688 89.0669 47.28C88.9781 47.1912 88.8727 47.1208 88.7566 47.0727C88.6406 47.0247 88.5162 47 88.3906 47H81.4196C81.294 47 81.1696 47.0247 81.0536 47.0727C80.9375 47.1208 80.8321 47.1912 80.7433 47.28C80.6545 47.3688 80.5841 47.4743 80.536 47.5903C80.488 47.7063 80.4632 47.8307 80.4633 47.9563V51.4276H49.9563C49.8307 51.4276 49.7063 51.4523 49.5903 51.5003C49.4743 51.5484 49.3688 51.6188 49.28 51.7076C49.1912 51.7964 49.1208 51.9019 49.0727 52.0179C49.0247 52.1339 49 52.2583 49 52.3839V79.0437C49 79.1693 49.0247 79.2937 49.0727 79.4097C49.1208 79.5257 49.1912 79.6312 49.28 79.72C49.3688 79.8088 49.4743 79.8792 49.5903 79.9273C49.7063 79.9753 49.8307 80 49.9563 80H90.6516C90.7772 80 90.9015 79.9753 91.0176 79.9273C91.1336 79.8792 91.239 79.8088 91.3278 79.72C91.4167 79.6312 91.4871 79.5257 91.5351 79.4097C91.5832 79.2937 91.6079 79.1693 91.6079 79.0437V52.3839C91.6079 52.2583 91.5832 52.1339 91.5351 52.0179C91.4871 51.9019 91.4167 51.7964 91.3278 51.7076C91.239 51.6188 91.1336 51.5484 91.0176 51.5003C90.9015 51.4523 90.7772 51.4276 90.6516 51.4276V51.4276ZM82.3759 48.9126H87.4343V51.4276H82.3759V48.9126ZM89.6953 78.0874H50.9126V53.3402H89.6953V78.0874Z" fill="white"/>
<path d="M75.5786 57.5035C73.9548 57.5036 72.3676 57.9851 71.0175 58.8873C69.6675 59.7895 68.6153 61.0717 67.994 62.5719C67.3726 64.072 67.2101 65.7228 67.5269 67.3153C67.8438 68.9078 68.6257 70.3706 69.7739 71.5188C70.9221 72.6669 72.385 73.4488 73.9775 73.7655C75.5701 74.0823 77.2208 73.9197 78.7209 73.2983C80.221 72.6769 81.5032 71.6246 82.4053 70.2745C83.3074 68.9244 83.7889 67.3371 83.7889 65.7134C83.7864 63.5367 82.9206 61.4498 81.3814 59.9107C79.8422 58.3716 77.7553 57.5059 75.5786 57.5035V57.5035ZM75.5786 72.0105C74.3331 72.0105 73.1157 71.6411 72.0801 70.9491C71.0446 70.2571 70.2375 69.2735 69.761 68.1228C69.2844 66.9722 69.1598 65.706 69.4028 64.4845C69.6458 63.263 70.2456 62.1409 71.1263 61.2603C72.007 60.3796 73.1291 59.7799 74.3506 59.537C75.5722 59.294 76.8383 59.4188 77.989 59.8954C79.1396 60.372 80.1231 61.1792 80.815 62.2148C81.507 63.2503 81.8763 64.4678 81.8763 65.7133C81.8744 67.3829 81.2102 68.9836 80.0296 70.1642C78.849 71.3447 77.2482 72.0088 75.5786 72.0105V72.0105Z" fill="white"/>
<path d="M63.7079 57.5035H54.3821C54.2565 57.5034 54.1321 57.5282 54.0161 57.5762C53.9 57.6243 53.7946 57.6947 53.7058 57.7835C53.617 57.8723 53.5466 57.9777 53.4985 58.0938C53.4505 58.2098 53.4257 58.3342 53.4258 58.4598V63.5943C53.4257 63.7199 53.4505 63.8443 53.4985 63.9603C53.5466 64.0764 53.617 64.1818 53.7058 64.2706C53.7946 64.3594 53.9 64.4299 54.0161 64.4779C54.1321 64.5259 54.2565 64.5507 54.3821 64.5506H63.7079C63.8335 64.5507 63.9579 64.5259 64.0739 64.4779C64.19 64.4299 64.2954 64.3594 64.3842 64.2706C64.473 64.1818 64.5435 64.0764 64.5915 63.9603C64.6396 63.8443 64.6643 63.7199 64.6642 63.5943V58.4598C64.6643 58.3342 64.6395 58.2098 64.5915 58.0938C64.5435 57.9777 64.473 57.8723 64.3842 57.7835C64.2954 57.6947 64.19 57.6243 64.0739 57.5762C63.9579 57.5282 63.8335 57.5034 63.7079 57.5035V57.5035ZM62.7516 62.638H55.3384V59.4161H62.7516V62.638Z" fill="white"/>
<path d="M54.5674 114H53.2549V104.047H54.5674V114ZM57.9648 106.604L57.999 107.424C58.5413 106.786 59.2728 106.467 60.1934 106.467C61.2279 106.467 61.932 106.863 62.3057 107.656C62.5518 107.301 62.8708 107.014 63.2627 106.795C63.6592 106.576 64.1263 106.467 64.6641 106.467C66.2865 106.467 67.1113 107.326 67.1387 109.044V114H65.874V109.119C65.874 108.59 65.7533 108.196 65.5117 107.937C65.2702 107.672 64.8646 107.54 64.2949 107.54C63.8255 107.54 63.4359 107.681 63.126 107.964C62.8161 108.242 62.6361 108.618 62.5859 109.092V114H61.3145V109.153C61.3145 108.078 60.7881 107.54 59.7354 107.54C58.9059 107.54 58.3385 107.893 58.0332 108.6V114H56.7686V106.604H57.9648ZM73.6191 114C73.5462 113.854 73.487 113.594 73.4414 113.221C72.8535 113.831 72.1517 114.137 71.3359 114.137C70.6068 114.137 70.0075 113.932 69.5381 113.521C69.0732 113.107 68.8408 112.583 68.8408 111.949C68.8408 111.179 69.1325 110.582 69.7158 110.158C70.3037 109.73 71.1286 109.516 72.1904 109.516H73.4209V108.935C73.4209 108.493 73.2887 108.142 73.0244 107.882C72.7601 107.618 72.3704 107.485 71.8555 107.485C71.4043 107.485 71.026 107.599 70.7207 107.827C70.4154 108.055 70.2627 108.331 70.2627 108.654H68.9912C68.9912 108.285 69.1211 107.93 69.3809 107.588C69.6452 107.242 70.0007 106.968 70.4473 106.768C70.8984 106.567 71.3929 106.467 71.9307 106.467C72.7829 106.467 73.4505 106.681 73.9336 107.109C74.4167 107.533 74.6673 108.119 74.6855 108.866V112.271C74.6855 112.95 74.7721 113.49 74.9453 113.891V114H73.6191ZM71.5205 113.036C71.917 113.036 72.293 112.934 72.6484 112.729C73.0039 112.523 73.2614 112.257 73.4209 111.929V110.411H72.4297C70.8802 110.411 70.1055 110.865 70.1055 111.771C70.1055 112.168 70.2376 112.478 70.502 112.701C70.7663 112.924 71.1058 113.036 71.5205 113.036ZM76.3672 110.24C76.3672 109.087 76.6338 108.171 77.167 107.492C77.7002 106.809 78.4066 106.467 79.2861 106.467C80.1885 106.467 80.8926 106.786 81.3984 107.424L81.46 106.604H82.6152V113.822C82.6152 114.779 82.3304 115.534 81.7607 116.085C81.1956 116.636 80.4346 116.912 79.4775 116.912C78.9443 116.912 78.4225 116.798 77.9121 116.57C77.4017 116.342 77.012 116.03 76.7432 115.634L77.3994 114.875C77.9417 115.545 78.6048 115.88 79.3887 115.88C80.0039 115.88 80.4824 115.707 80.8242 115.36C81.1706 115.014 81.3438 114.526 81.3438 113.897V113.262C80.8379 113.845 80.1475 114.137 79.2725 114.137C78.4066 114.137 77.7048 113.788 77.167 113.091C76.6338 112.394 76.3672 111.443 76.3672 110.24ZM77.6387 110.384C77.6387 111.218 77.8096 111.874 78.1514 112.353C78.4932 112.826 78.9717 113.063 79.5869 113.063C80.3844 113.063 80.9701 112.701 81.3438 111.977V108.6C80.9564 107.893 80.3753 107.54 79.6006 107.54C78.9854 107.54 78.5046 107.779 78.1582 108.258C77.8118 108.736 77.6387 109.445 77.6387 110.384ZM87.5986 114.137C86.596 114.137 85.7803 113.809 85.1514 113.152C84.5225 112.492 84.208 111.61 84.208 110.507V110.274C84.208 109.541 84.347 108.887 84.625 108.312C84.9076 107.734 85.2995 107.283 85.8008 106.959C86.3066 106.631 86.8535 106.467 87.4414 106.467C88.403 106.467 89.1504 106.784 89.6836 107.417C90.2168 108.05 90.4834 108.957 90.4834 110.138V110.664H85.4727C85.4909 111.393 85.7028 111.983 86.1084 112.435C86.5186 112.881 87.0381 113.104 87.667 113.104C88.1136 113.104 88.4919 113.013 88.8018 112.831C89.1117 112.649 89.3828 112.407 89.6152 112.106L90.3877 112.708C89.7679 113.66 88.8382 114.137 87.5986 114.137ZM87.4414 107.506C86.931 107.506 86.5026 107.693 86.1562 108.066C85.8099 108.436 85.5957 108.955 85.5137 109.625H89.2188V109.529C89.1823 108.887 89.0091 108.39 88.6992 108.039C88.3893 107.684 87.9701 107.506 87.4414 107.506Z" fill="#E5E5E5"/>
</svg>
