<svg width="52" height="84" viewBox="0 0 52 84" fill="none" xmlns="http://www.w3.org/2000/svg">
<path d="M26 58C34.8 58 42 50.8 42 42V16C42 7.2 34.8 0 26 0C17.2 0 10 7.2 10 16V42C10 50.8 17.2 58 26 58ZM16 16C16 10.5 20.5 6 26 6C31.5 6 36 10.5 36 16V42C36 47.5 31.5 52 26 52C20.5 52 16 47.5 16 42V16Z" fill="white"/>
<path d="M23 68.8V77.8H17.5C15.8 77.8 14.5 79.1 14.5 80.8C14.5 82.5 15.8 83.8 17.5 83.8H34.6C36.3 83.8 37.6 82.5 37.6 80.8C37.6 79.1 36.3 77.8 34.6 77.8H29V68.8C41.9 67.5 52 57.7 52 46C52 44.3 50.7 43 49 43C47.3 43 46 44.3 46 46C46 55.4 37 63 26 63C15 63 6 55.4 6 46C6 44.3 4.7 43 3 43C1.3 43 0 44.3 0 46C0 57.7 10.1 67.5 23 68.8Z" fill="white"/>
</svg>
