<svg width="293" height="265" viewBox="0 0 293 265" fill="none" xmlns="http://www.w3.org/2000/svg">
<path d="M112.425 159.764C122.854 151.846 127.667 137.508 126.754 117.067C136.84 109.098 141.499 94.9293 140.627 74.8665C151.727 66.4391 156.468 50.7402 154.712 28.1489C154.709 28.1091 154.699 28.0711 154.695 28.0316C154.678 27.8562 154.652 27.6805 154.619 27.5045C154.606 27.4308 154.593 27.3573 154.576 27.2845C154.566 27.2411 154.561 27.1976 154.55 27.1541C151.62 15.4253 141.618 1.20648 110.608 0.0714237C93.4881 -0.553855 77.7364 3.12769 77.074 3.28446C75.6809 3.61475 74.4506 4.4296 73.6029 5.58343C72.7552 6.73726 72.3453 8.15489 72.4466 9.58306C72.5478 11.0112 73.1535 12.3569 74.1555 13.3796C75.1574 14.4023 76.4904 15.0355 77.9162 15.166C94.2643 16.6617 96.8031 25.662 96.9575 26.279C97.1101 26.8181 97.1431 27.3842 97.0541 27.9374C96.9651 28.4907 96.7564 29.0178 96.4424 29.482C94.5306 32.322 89.2096 33.8802 87.4952 34.2019C86.528 34.3782 85.6189 34.7893 84.8477 35.399C78.9295 36.6161 73.174 38.9933 68.3083 43.2564C59.344 51.111 54.9588 63.6072 54.9022 81.4604C54.8985 82.5014 55.1657 83.5254 55.6775 84.4319C55.0989 84.8713 54.5274 85.3263 53.9711 85.8138C45.0068 93.6678 40.6215 106.165 40.565 124.017C40.5617 125.096 40.8498 126.156 41.3989 127.086C40.962 127.429 40.5298 127.782 40.1059 128.154C31.1416 136.008 26.7564 148.504 26.6998 166.357C26.6961 167.398 26.9634 168.422 27.4753 169.329C26.8969 169.768 26.3256 170.223 25.7692 170.71C16.8049 178.565 12.4197 191.061 12.3631 208.914C12.3627 209.471 12.4392 210.024 12.5906 210.559C5.80581 219.05 1.59062 231.687 0.0272724 248.301C0.0145994 248.435 0.00959039 248.568 0.00575832 248.701L0.00310921 248.701C0.00250574 248.722 0.002077 248.752 0.00163646 248.78L0.00103332 248.805C-0.0206254 250.297 0.2129 259.867 9.20078 269.32C20.1836 280.871 39.1141 287.034 65.4672 287.639C65.5137 287.64 65.5603 287.641 65.6068 287.641C66.8327 287.641 68.0294 287.267 69.0377 286.57C70.046 285.873 70.8181 284.885 71.2512 283.738C71.6844 282.592 71.758 281.34 71.4623 280.15C71.1666 278.961 70.5156 277.889 69.596 277.079C67.2373 274.766 65.3755 271.996 64.1247 268.938C61.8059 263.036 62.7901 257.351 67.1216 251.606C71.062 251.336 74.9499 250.549 78.6859 249.268C86.7597 246.312 93.9861 238.831 98.0242 229.245C101.821 220.164 102.587 210.101 100.209 200.55C109.144 192.371 113.247 178.692 112.425 159.764ZM96.9433 26.2106C96.9451 26.2171 96.9474 26.2295 96.9522 26.2513L96.9557 26.2713C96.9504 26.2466 96.9463 26.2266 96.9433 26.2106ZM110.166 12.1327C126.566 12.7332 137.011 17.3705 141.309 25.931C133.319 30.271 119.226 36.4944 109.335 35.2168C108.648 35.1279 107.942 35.0418 107.222 34.9596C109.059 31.564 109.612 27.6204 108.78 23.8504C108.606 23.0088 107.267 17.3913 101.715 12.1828C104.444 12.0596 107.291 12.0284 110.166 12.1327ZM76.2619 52.3345C82.5218 46.8502 92.5422 45.2148 107.786 47.1861C119.736 48.7325 133.977 43.0873 142.995 38.6302C142.767 51.58 139.532 60.495 133.352 65.2285C132.566 65.3599 131.814 65.646 131.139 66.07C125.138 69.8488 106.948 79.3111 94.9974 77.7736C86.9904 76.7375 76.592 76.0229 67.0208 78.8252C67.4364 66.2542 70.5395 57.3482 76.2619 52.3345ZM61.9247 94.8919C68.1845 89.4075 78.202 87.771 93.4492 89.7429C105.393 91.2881 119.64 85.6447 128.658 81.1876C128.432 93.9834 125.276 102.847 119.238 107.622C118.542 107.767 117.877 108.034 117.274 108.41C111.272 112.189 93.0808 121.651 81.1322 120.113C72.9954 119.06 62.3866 118.336 52.6872 121.302C53.1136 108.774 56.2146 99.8948 61.9247 94.8919ZM48.0601 137.232C54.32 131.747 64.3392 130.113 79.584 132.083C91.5274 133.628 105.775 127.985 114.793 123.527C114.565 136.476 111.332 145.389 105.153 150.123C104.364 150.255 103.61 150.543 102.933 150.969C96.948 154.75 78.7872 164.222 66.7955 162.671C58.7891 161.635 48.3901 160.92 38.8183 163.723C39.2338 151.152 42.3371 142.246 48.0601 137.232ZM33.7228 179.789C39.9827 174.304 50.0007 172.669 65.2473 174.64C77.1866 176.186 91.4378 170.542 100.456 166.085C100.225 179.186 96.9147 188.154 90.5917 192.844C90.0999 193.082 89.6428 193.387 89.2331 193.749C89.0858 193.881 74.2718 206.798 54.1166 200.492C42.9341 196.994 33.1223 197.143 24.8543 200.893C25.8905 191.139 28.8564 184.052 33.7228 179.789ZM12.3527 251.081C15.7269 248.147 23.9777 242.759 35.6676 247.022C41.3662 249.123 47.2871 250.564 53.3141 251.316C51.7476 254.767 50.902 258.501 50.8293 262.29C50.7567 266.079 51.4584 269.844 52.8914 273.352C53.0865 273.849 53.2906 274.334 53.5037 274.806C19.9337 271.206 13.5609 256.648 12.3527 251.081V251.081ZM74.5116 237.943C74.4533 237.964 74.4368 237.97 74.379 237.993C73.8156 238.208 60.3412 243.172 39.8012 235.682C35.7031 234.145 31.366 233.342 26.9891 233.312C22.596 233.312 18.2473 234.191 14.1995 235.899C16.7902 225.008 21.1418 217.344 27.0375 213.423C32.978 209.472 40.8762 208.996 50.5135 212.011C55.3038 213.528 60.2975 214.305 65.3222 214.315C73.7092 214.258 81.9514 212.124 89.3115 208.102C90.8384 222.713 82.5583 235.017 74.5116 237.943V237.943Z" fill="#FFDAA4" fill-opacity="0.5"/>
<path d="M292.208 67.0227C292.209 66.9789 292.214 66.9362 292.214 66.8922C292.227 55.8416 286.556 41.0188 259.471 33.1571C249.682 30.4417 239.603 28.9146 229.45 28.6086C229.423 28.608 229.397 28.608 229.37 28.608C227.945 28.6083 226.566 29.1128 225.478 30.0321C224.389 30.9514 223.661 32.2262 223.422 33.6308C223.183 35.0355 223.449 36.4793 224.172 37.7068C224.896 38.9343 226.03 39.8662 227.375 40.3375C240.732 45.0197 241.078 52.9468 241.085 53.5509C241.101 53.9668 241.025 54.3811 240.863 54.7645C240.701 55.1479 240.457 55.4909 240.147 55.7691C238.19 57.5312 233.683 57.8707 231.798 57.7628C230.869 57.7015 229.939 57.8569 229.081 58.2167C223.464 57.8827 217.857 59.0196 212.813 61.5151C203.137 66.4737 196.493 76.513 192.502 92.2051C192.291 93.0341 192.261 93.8986 192.411 94.7406C191.96 94.9429 191.51 95.1551 191.064 95.384C181.388 100.343 174.744 110.382 170.752 126.074C170.532 126.942 170.509 127.848 170.685 128.726C170.379 128.869 170.074 129.012 169.771 129.167C160.095 134.126 153.45 144.165 149.459 159.857C149.248 160.686 149.218 161.551 149.368 162.393C148.917 162.595 148.467 162.807 148.02 163.036C138.345 167.995 131.701 178.034 127.709 193.726C127.6 194.162 127.539 194.608 127.528 195.057C119.789 201.058 113.379 211.153 108.406 225.221C108.361 225.348 108.324 225.476 108.288 225.604L108.285 225.603C108.279 225.624 108.271 225.654 108.264 225.683L108.259 225.701C107.901 227.048 105.977 235.635 111.84 246.013C118.953 258.602 134.193 268.191 157.137 274.512C158.331 274.843 159.596 274.799 160.764 274.387C161.932 273.976 162.945 273.216 163.668 272.21C164.387 271.206 164.779 270.005 164.791 268.77C164.803 267.534 164.435 266.326 163.735 265.308C162.166 262.757 161.164 259.899 160.796 256.927C160.239 251.756 162.209 247.384 166.791 243.602C169.225 243.991 171.686 244.193 174.151 244.205C175.18 244.213 176.208 244.164 177.232 244.057C185.066 243.232 193.144 238.213 198.849 230.624C204.134 223.553 207.033 214.984 207.127 206.156C216.615 200.87 223.142 189.897 226.577 173.43C237.342 168.685 244.657 157.272 248.355 139.432C258.831 134.572 265.969 123.275 269.62 105.778C281.147 100.697 288.717 87.9713 292.129 67.897C292.136 67.8571 292.135 67.8173 292.141 67.7773C292.167 67.6044 292.185 67.4294 292.196 67.2522C292.201 67.1755 292.206 67.0993 292.208 67.0227ZM241.088 53.4637C241.088 53.4713 241.088 53.4849 241.087 53.5091L241.085 53.5409C241.086 53.5085 241.087 53.4831 241.088 53.4637V53.4637ZM148.868 258.824C148.883 258.944 148.899 259.062 148.916 259.18C122.481 249.152 119.706 236.061 119.726 230.928C123.349 229.179 131.23 226.732 139.909 232.613C144.215 235.552 148.827 238.015 153.665 239.96C149.639 245.369 147.915 252.15 148.868 258.824ZM175.946 232.056C175.885 232.063 175.873 232.063 175.811 232.072C172.962 232.256 170.1 232.05 167.306 231.461C162.516 230.558 155.048 228.292 146.679 222.621C140.192 218.226 133.967 216.77 128.561 216.77C127.418 216.771 126.277 216.835 125.142 216.964C129.565 208.818 134.704 203.578 140.298 201.593C146.139 199.519 152.93 200.812 160.479 205.432C173.586 213.449 186.384 212.717 194.627 210.791C192.5 223.025 183.185 231.309 175.946 232.056ZM199.659 196.376C199.138 196.489 198.635 196.67 198.162 196.916C198.009 196.996 182.629 204.834 166.778 195.136C158.215 189.896 149.72 187.777 141.883 188.856C144.815 181.306 148.713 176.243 153.525 173.777C159.993 170.464 168.894 171.235 181.541 176.206C191.456 180.104 204.468 178.592 213.358 176.734C210.357 187.236 205.764 193.816 199.659 196.376ZM221.703 162.389C220.959 162.347 220.215 162.443 219.507 162.673C213.523 164.629 195.829 168.854 185.956 164.973C179.379 162.388 170.77 159.574 162.025 159.714C165.074 149.522 169.521 142.858 175.275 139.909C181.742 136.594 190.644 137.366 203.291 142.337C213.207 146.235 226.217 144.722 235.108 142.865C232.154 153.199 227.663 159.743 221.703 162.389ZM243.195 128.515C242.536 128.505 241.88 128.603 241.253 128.805C235.283 130.765 217.622 135.002 207.706 131.105C201.02 128.477 192.235 125.611 183.341 125.853C186.39 115.705 190.828 109.067 196.568 106.125C203.035 102.811 211.937 103.583 224.584 108.554C234.501 112.452 247.511 110.939 256.401 109.081C253.481 119.3 249.056 125.813 243.195 128.515ZM264.751 94.7335C264.004 94.6915 263.256 94.7892 262.546 95.0215C256.577 96.9822 238.915 101.218 228.999 97.3211C222.422 94.7359 213.812 91.9219 205.068 92.0618C208.117 81.8693 212.564 75.2051 218.318 72.2563C224.784 68.9413 233.687 69.7133 246.334 74.6843C256.249 78.5822 269.26 77.0699 278.151 75.2124C275.198 85.5436 270.708 92.0868 264.751 94.7335H264.751ZM250.749 63.4517C250.438 63.3292 250.122 63.2064 249.801 63.0831C251.868 60.5202 253.042 57.352 253.144 54.0607C253.132 50.262 252.114 46.5341 250.195 43.2559C252.206 43.6943 254.259 44.2065 256.303 44.8058C269.723 48.7384 277.529 54.6745 279.589 62.4874C271.706 64.46 258.724 66.5867 250.749 63.4517H250.749Z" fill="#FFDAA4" fill-opacity="0.5"/>
</svg>
